<svg width="48" height="48" viewBox="0 0 48 48" fill="none" xmlns="http://www.w3.org/2000/svg">
<path d="M17 21.5H31V5.5H33V23.5H15V5.5H17V21.5ZM29 17.5H19V15.5H29V17.5ZM29 11.5H19V9.5H29V11.5ZM31 5.5H17V3.5H31V5.5Z" fill="#100F0F"/>
<path d="M21.5877 32.852H22.6317V43.412H21.5877V32.852ZM14.2077 33.968H20.1837V34.808H19.0437V39.812C19.6077 39.764 20.1597 39.716 20.6997 39.656L20.7717 40.412C18.5037 40.784 15.9837 40.808 14.0517 40.82L13.9437 39.944L15.3477 39.932V34.808H14.2077V33.968ZM16.3557 39.92L18.0357 39.872V34.808H16.3557V39.92ZM25.656 33.8H32.82V34.652H26.688V37.88H32.928V38.72H25.656V33.8ZM24.456 41.132H34.02V41.984H24.456V41.132Z" fill="#100F0F"/>
</svg>
