<svg width="48" height="48" viewBox="0 0 48 48" fill="none" xmlns="http://www.w3.org/2000/svg">
<path d="M18 21.5H30V13.5H32V23.5H16V13.5H18V21.5ZM35 13.5H33L28 5.5H20L15 13.5H13L19 3.5H29L35 13.5Z" fill="#CECDCD"/>
<path d="M20.3759 40.244H27.5879V43.268H20.3759V40.244ZM26.5679 41.024H21.3959V42.476H26.5679V41.024ZM19.7039 33.692H23.4599V32.696H24.5039V33.692H28.1999V34.508H19.7039V33.692ZM23.9759 34.892C26.1719 34.892 27.3959 35.42 27.3959 36.392C27.3959 37.292 26.3639 37.808 24.5039 37.88V38.66H28.7519V39.476H19.2119V38.66H23.4599V37.88C21.5879 37.808 20.5559 37.292 20.5559 36.392C20.5559 35.42 21.7799 34.892 23.9759 34.892ZM23.9759 35.624C22.4759 35.624 21.6599 35.9 21.6599 36.392C21.6599 36.896 22.4759 37.172 23.9759 37.172C25.4879 37.172 26.3039 36.896 26.3039 36.392C26.3039 35.9 25.4879 35.624 23.9759 35.624Z" fill="#CECDCD"/>
</svg>
