<svg width="48" height="48" viewBox="0 0 48 48" fill="none" xmlns="http://www.w3.org/2000/svg">
<path d="M15 17.5H18.9766C20.1225 17.5 21.5738 17.7783 22.7734 18.5264C23.2352 18.8144 23.6604 19.1744 24.0127 19.6104C24.0837 19.5177 24.1584 19.4258 24.2383 19.3359C25.1917 18.2625 26.7084 17.5001 28.918 17.5H33V6.5H35V19.5H28.918C27.2051 19.5001 26.2603 20.0709 25.7334 20.6641C25.1767 21.2909 24.9961 22.0449 24.9961 22.5H22.9961L22.9902 22.2988C22.9304 21.3148 22.4283 20.6685 21.7148 20.2236C20.91 19.7217 19.8513 19.5 18.9766 19.5H13V6.5H15V17.5ZM18.9766 4.5C20.1225 4.5 21.5738 4.77828 22.7734 5.52637C23.2352 5.81436 23.6604 6.17438 24.0127 6.61035C24.0837 6.51774 24.1584 6.42584 24.2383 6.33594C25.1917 5.26255 26.7084 4.50005 28.918 4.5H33C33 4.5005 33 5.50025 33 6.5H28.918C27.2051 6.50005 26.2603 7.07085 25.7334 7.66406C25.1767 8.29091 24.9961 9.04488 24.9961 9.5H22.9961L22.9902 9.29883C22.9304 8.31484 22.4283 7.66854 21.7148 7.22363C20.91 6.72172 19.8513 6.5 18.9766 6.5H15V4.5H18.9766Z" fill="#CECDCD"/>
<path d="M19.2357 36.392H21.6357V32.828H22.6677V43.424H21.6357V37.244H19.2357V36.392ZM16.6557 33.74H17.6877V35.588C17.6877 37.508 18.8157 39.44 20.3757 40.172L19.7637 41.012C18.5757 40.4 17.6517 39.176 17.1837 37.712C16.7157 39.26 15.7677 40.556 14.5797 41.192L13.9317 40.352C15.5037 39.584 16.6557 37.544 16.6557 35.588V33.74ZM32.472 32.84H33.468V43.4H32.472V37.94H31.152V42.872H30.18V33.068H31.152V37.076H32.472V32.84ZM24.588 34.064H29.46V34.928H27.588V35.66C27.588 37.592 28.344 39.308 29.832 40.076L29.22 40.88C28.188 40.316 27.492 39.32 27.12 38.084C26.76 39.5 26.052 40.616 24.972 41.264L24.324 40.46C25.836 39.596 26.592 37.796 26.592 35.66V34.928H24.588V34.064Z" fill="#CECDCD"/>
</svg>
