<svg width="220" height="48" viewBox="0 0 220 48" fill="none" xmlns="http://www.w3.org/2000/svg">
<rect width="220" height="48" rx="12" fill="#FEEB00"/>
<path d="M66.856 18.56C66.856 22.688 65.544 26.4 60.472 28.928L59.72 27.856C62.264 26.592 63.8 25.024 64.648 23.2L60.008 23.648L59.8 22.432L65.064 22.08C65.288 21.328 65.432 20.528 65.48 19.696H60.52V18.56H66.856ZM69.064 17.104H70.472V22.784H72.664V23.952H70.472V31.2H69.064V17.104ZM80.8404 18.56C80.8404 22.688 79.5284 26.4 74.4564 28.928L73.7044 27.856C76.2484 26.592 77.7844 25.024 78.6324 23.2L73.9924 23.648L73.7844 22.432L79.0484 22.08C79.2724 21.328 79.4164 20.528 79.4644 19.696H74.5044V18.56H80.8404ZM83.0484 17.104H84.4564V22.784H86.6484V23.952H84.4564V31.2H83.0484V17.104ZM93.9288 18.016C96.9208 18.016 99.0648 19.472 99.0648 21.728C99.0648 23.808 97.2408 25.2 94.6168 25.392V28.272H100.329V29.408H87.5768V28.272H93.2408V25.392C90.6328 25.184 88.7928 23.808 88.7928 21.728C88.7928 19.472 90.9688 18.016 93.9288 18.016ZM93.9288 19.12C91.7368 19.12 90.1528 20.144 90.1528 21.728C90.1528 23.296 91.7368 24.336 93.9288 24.336C96.1208 24.336 97.7208 23.296 97.7208 21.728C97.7208 20.144 96.1208 19.12 93.9288 19.12ZM101.561 28.352H107.225V25.776H103.145V21.36H111.385V19.264H103.113V18.144H112.761V22.464H104.505V24.656H113.081V25.776H108.601V28.352H114.313V29.488H101.561V28.352ZM119.233 28.352H124.897V25.776H120.817V21.36H129.057V19.264H120.785V18.144H130.433V22.464H122.177V24.656H130.753V25.776H126.273V28.352H131.985V29.488H119.233V28.352ZM134.593 18.576H144.257V20.032C144.257 21.84 144.257 23.84 143.729 26.864L142.337 26.736C142.881 23.888 142.881 21.808 142.881 20.032V19.712H134.593V18.576ZM133.217 28.032H145.953V29.184H133.217V28.032ZM157.362 17.136H158.754V27.392H157.362V17.136ZM149.682 26.352H151.058V29.776H159.17V30.896H149.682V26.352ZM151.186 18.096C153.298 18.096 154.882 19.536 154.882 21.584C154.882 23.616 153.298 25.056 151.186 25.056C149.09 25.056 147.49 23.616 147.49 21.584C147.49 19.536 149.09 18.096 151.186 18.096ZM151.186 19.296C149.858 19.296 148.85 20.224 148.85 21.584C148.85 22.912 149.858 23.84 151.186 23.84C152.514 23.84 153.538 22.912 153.538 21.584C153.538 20.224 152.514 19.296 151.186 19.296Z" fill="black"/>
</svg>
