<svg width="220" height="48" viewBox="0 0 220 48" fill="none" xmlns="http://www.w3.org/2000/svg">
<rect width="220" height="48" rx="12" fill="#1EC900"/>
<path d="M60.264 18.624H61.624V26.48C63.096 26.464 64.488 26.368 66.088 26.032L66.28 27.216C64.456 27.6 62.888 27.664 61.192 27.664H60.264V18.624ZM70.28 17.12H71.592V31.2H70.28V17.12ZM64.168 21.824H67.288V17.44H68.584V30.496H67.288V22.96H64.168V21.824ZM83.7364 17.104H85.1284V31.232H83.7364V17.104ZM77.6724 18.192C79.7684 18.192 81.2724 20.096 81.2724 23.12C81.2724 26.128 79.7684 28.048 77.6724 28.048C75.5764 28.048 74.0724 26.128 74.0724 23.12C74.0724 20.096 75.5764 18.192 77.6724 18.192ZM77.6724 19.44C76.3444 19.44 75.4164 20.864 75.4164 23.12C75.4164 25.376 76.3444 26.816 77.6724 26.816C79.0004 26.816 79.9284 25.376 79.9284 23.12C79.9284 20.864 79.0004 19.44 77.6724 19.44ZM97.8168 17.104H99.1928V31.232H97.8168V23.44H94.6328V27.712H88.1208V18.24H89.5128V21.856H93.2728V18.24H94.6328V22.32H97.8168V17.104ZM89.5128 22.96V26.576H93.2728V22.96H89.5128ZM101.561 28.352H107.225V25.776H103.145V21.36H111.385V19.264H103.113V18.144H112.761V22.464H104.505V24.656H113.081V25.776H108.601V28.352H114.313V29.488H101.561V28.352ZM119.233 28.352H124.897V25.776H120.817V21.36H129.057V19.264H120.785V18.144H130.433V22.464H122.177V24.656H130.753V25.776H126.273V28.352H131.985V29.488H119.233V28.352ZM134.593 18.576H144.257V20.032C144.257 21.84 144.257 23.84 143.729 26.864L142.337 26.736C142.881 23.888 142.881 21.808 142.881 20.032V19.712H134.593V18.576ZM133.217 28.032H145.953V29.184H133.217V28.032ZM157.362 17.136H158.754V27.392H157.362V17.136ZM149.682 26.352H151.058V29.776H159.17V30.896H149.682V26.352ZM151.186 18.096C153.298 18.096 154.882 19.536 154.882 21.584C154.882 23.616 153.298 25.056 151.186 25.056C149.09 25.056 147.49 23.616 147.49 21.584C147.49 19.536 149.09 18.096 151.186 18.096ZM151.186 19.296C149.858 19.296 148.85 20.224 148.85 21.584C148.85 22.912 149.858 23.84 151.186 23.84C152.514 23.84 153.538 22.912 153.538 21.584C153.538 20.224 152.514 19.296 151.186 19.296Z" fill="white"/>
</svg>
