<svg width="360" height="48" viewBox="0 0 360 48" fill="none" xmlns="http://www.w3.org/2000/svg">
<rect width="360" height="48" rx="12" fill="#1EC900"/>
<path d="M130.264 18.624H131.624V26.48C133.096 26.464 134.488 26.368 136.088 26.032L136.28 27.216C134.456 27.6 132.888 27.664 131.192 27.664H130.264V18.624ZM140.28 17.12H141.592V31.2H140.28V17.12ZM134.168 21.824H137.288V17.44H138.584V30.496H137.288V22.96H134.168V21.824ZM153.736 17.104H155.128V31.232H153.736V17.104ZM147.672 18.192C149.768 18.192 151.272 20.096 151.272 23.12C151.272 26.128 149.768 28.048 147.672 28.048C145.576 28.048 144.072 26.128 144.072 23.12C144.072 20.096 145.576 18.192 147.672 18.192ZM147.672 19.44C146.344 19.44 145.416 20.864 145.416 23.12C145.416 25.376 146.344 26.816 147.672 26.816C149 26.816 149.928 25.376 149.928 23.12C149.928 20.864 149 19.44 147.672 19.44ZM167.817 17.104H169.193V31.232H167.817V23.44H164.633V27.712H158.121V18.24H159.513V21.856H163.273V18.24H164.633V22.32H167.817V17.104ZM159.513 22.96V26.576H163.273V22.96H159.513ZM171.561 28.352H177.225V25.776H173.145V21.36H181.385V19.264H173.113V18.144H182.761V22.464H174.505V24.656H183.081V25.776H178.601V28.352H184.313V29.488H171.561V28.352ZM189.233 28.352H194.897V25.776H190.817V21.36H199.057V19.264H190.785V18.144H200.433V22.464H192.177V24.656H200.753V25.776H196.273V28.352H201.985V29.488H189.233V28.352ZM204.593 18.576H214.257V20.032C214.257 21.84 214.257 23.84 213.729 26.864L212.337 26.736C212.881 23.888 212.881 21.808 212.881 20.032V19.712H204.593V18.576ZM203.217 28.032H215.953V29.184H203.217V28.032ZM227.362 17.136H228.754V27.392H227.362V17.136ZM219.682 26.352H221.058V29.776H229.17V30.896H219.682V26.352ZM221.186 18.096C223.298 18.096 224.882 19.536 224.882 21.584C224.882 23.616 223.298 25.056 221.186 25.056C219.09 25.056 217.49 23.616 217.49 21.584C217.49 19.536 219.09 18.096 221.186 18.096ZM221.186 19.296C219.858 19.296 218.85 20.224 218.85 21.584C218.85 22.912 219.858 23.84 221.186 23.84C222.514 23.84 223.538 22.912 223.538 21.584C223.538 20.224 222.514 19.296 221.186 19.296Z" fill="white"/>
</svg>
