<svg width="360" height="48" viewBox="0 0 360 48" fill="none" xmlns="http://www.w3.org/2000/svg">
<rect width="360" height="48" rx="12" fill="#FEEB00"/>
<path d="M136.856 18.56C136.856 20.8427 136.381 22.848 135.432 24.576C134.493 26.2933 132.84 27.744 130.472 28.928L129.72 27.856C132.12 26.6613 133.763 25.1093 134.648 23.2L130.008 23.648L129.8 22.432L135.064 22.08C135.299 21.312 135.437 20.5173 135.48 19.696H130.52V18.56H136.856ZM140.472 17.104V22.784H142.664V23.952H140.472V31.2H139.064V17.104H140.472ZM150.84 18.56C150.84 20.8427 150.366 22.848 149.416 24.576C148.478 26.2933 146.824 27.744 144.456 28.928L143.704 27.856C146.104 26.6613 147.747 25.1093 148.632 23.2L143.992 23.648L143.784 22.432L149.048 22.08C149.283 21.312 149.422 20.5173 149.464 19.696H144.504V18.56H150.84ZM154.456 17.104V22.784H156.648V23.952H154.456V31.2H153.048V17.104H154.456ZM163.929 18.016C164.921 18.016 165.806 18.1707 166.585 18.48C167.363 18.7787 167.971 19.2107 168.409 19.776C168.846 20.3413 169.065 20.992 169.065 21.728C169.065 22.4107 168.878 23.0187 168.505 23.552C168.131 24.0747 167.609 24.496 166.937 24.816C166.265 25.136 165.491 25.328 164.617 25.392V28.272H170.329V29.408H157.577V28.272H163.241V25.392C162.366 25.3173 161.593 25.1253 160.921 24.816C160.249 24.496 159.726 24.0747 159.353 23.552C158.979 23.0187 158.793 22.4107 158.793 21.728C158.793 20.992 159.011 20.3413 159.449 19.776C159.897 19.2107 160.51 18.7787 161.289 18.48C162.067 18.1707 162.947 18.016 163.929 18.016ZM163.929 19.12C163.203 19.12 162.553 19.2267 161.977 19.44C161.401 19.6533 160.953 19.9573 160.633 20.352C160.313 20.7467 160.153 21.2053 160.153 21.728C160.153 22.24 160.313 22.6933 160.633 23.088C160.963 23.4827 161.411 23.792 161.977 24.016C162.553 24.2293 163.203 24.336 163.929 24.336C164.654 24.336 165.305 24.2293 165.881 24.016C166.457 23.792 166.905 23.4827 167.225 23.088C167.555 22.6933 167.721 22.24 167.721 21.728C167.721 21.2053 167.555 20.7467 167.225 20.352C166.905 19.9573 166.457 19.6533 165.881 19.44C165.305 19.2267 164.654 19.12 163.929 19.12ZM177.225 28.352V25.776H173.145V21.36H181.385V19.264H173.113V18.144H182.761V22.464H174.505V24.656H183.081V25.776H178.601V28.352H184.313V29.488H171.561V28.352H177.225ZM194.897 28.352V25.776H190.817V21.36H199.057V19.264H190.785V18.144H200.433V22.464H192.177V24.656H200.753V25.776H196.273V28.352H201.985V29.488H189.233V28.352H194.897ZM214.257 18.576V20.032C214.257 21.2693 214.225 22.384 214.161 23.376C214.108 24.368 213.964 25.5307 213.729 26.864L212.337 26.736C212.583 25.4773 212.732 24.3573 212.785 23.376C212.849 22.384 212.881 21.2693 212.881 20.032V19.712H204.593V18.576H214.257ZM215.953 28.032V29.184H203.217V28.032H215.953ZM228.754 17.136V27.392H227.362V17.136H228.754ZM221.058 26.352V29.776H229.17V30.896H219.682V26.352H221.058ZM221.186 18.096C221.879 18.096 222.508 18.2453 223.074 18.544C223.639 18.8427 224.082 19.2587 224.402 19.792C224.722 20.3147 224.882 20.912 224.882 21.584C224.882 22.2453 224.722 22.8427 224.402 23.376C224.082 23.8987 223.639 24.3093 223.074 24.608C222.508 24.9067 221.879 25.056 221.186 25.056C220.492 25.056 219.863 24.9067 219.298 24.608C218.743 24.3093 218.3 23.8987 217.97 23.376C217.65 22.8427 217.49 22.2453 217.49 21.584C217.49 20.912 217.65 20.3147 217.97 19.792C218.3 19.2587 218.743 18.8427 219.298 18.544C219.863 18.2453 220.492 18.096 221.186 18.096ZM221.186 19.296C220.514 19.296 219.954 19.5093 219.506 19.936C219.068 20.3627 218.85 20.912 218.85 21.584C218.85 22.2453 219.068 22.7893 219.506 23.216C219.954 23.632 220.514 23.84 221.186 23.84C221.858 23.84 222.418 23.632 222.866 23.216C223.314 22.7893 223.538 22.2453 223.538 21.584C223.538 20.912 223.314 20.3627 222.866 19.936C222.418 19.5093 221.858 19.296 221.186 19.296Z" fill="black"/>
</svg>
