<svg width="174" height="46" viewBox="0 0 174 46" fill="none" xmlns="http://www.w3.org/2000/svg">
<rect x="0.5" y="0.5" width="173" height="45" rx="11.5" fill="#FFEEF6"/>
<rect x="0.5" y="0.5" width="173" height="45" rx="11.5" stroke="#FF4093"/>
<path d="M84.568 16.12V19.32H86.632V20.472H84.568V24.088H83.176V16.12H84.568ZM84.568 24.824V30.008H75.656V24.824H84.568ZM77.016 25.928V28.888H83.224V25.928H77.016ZM75.672 16.824V21.912C77.8587 21.8907 79.9013 21.688 81.8 21.304L81.96 22.424C79.9333 22.8507 77.752 23.064 75.416 23.064H74.28V16.824H75.672ZM92.4724 16.92V18.28C92.4724 19.272 92.7764 20.1733 93.3844 20.984C94.003 21.7947 94.8297 22.376 95.8644 22.728L95.1124 23.816C94.355 23.528 93.6937 23.1173 93.1284 22.584C92.5737 22.0507 92.1417 21.4267 91.8324 20.712C91.523 21.5333 91.0644 22.248 90.4564 22.856C89.8484 23.464 89.123 23.9227 88.2804 24.232L87.5604 23.112C88.6484 22.728 89.507 22.104 90.1364 21.24C90.7764 20.376 91.0964 19.4053 91.0964 18.328V16.92H92.4724ZM99.1764 16.136V24.44H97.7844V20.2H94.7924V19.048H97.7844V16.136H99.1764ZM94.5364 24.856C95.9977 24.856 97.1444 25.0907 97.9764 25.56C98.819 26.0293 99.2404 26.6853 99.2404 27.528C99.2404 28.3707 98.8244 29.0213 97.9924 29.48C97.1604 29.9493 96.0084 30.184 94.5364 30.184C93.0644 30.184 91.907 29.9493 91.0644 29.48C90.2324 29.0213 89.8164 28.3707 89.8164 27.528C89.8164 26.6853 90.2324 26.0293 91.0644 25.56C91.907 25.0907 93.0644 24.856 94.5364 24.856ZM94.5364 25.944C93.491 25.944 92.675 26.0827 92.0884 26.36C91.5017 26.6373 91.2084 27.0267 91.2084 27.528C91.2084 28.0187 91.5017 28.4027 92.0884 28.68C92.675 28.9573 93.491 29.096 94.5364 29.096C95.5817 29.096 96.3977 28.9573 96.9844 28.68C97.571 28.4027 97.8644 28.0187 97.8644 27.528C97.8644 27.0267 97.571 26.6373 96.9844 26.36C96.3977 26.0827 95.5817 25.944 94.5364 25.944Z" fill="#FF4093"/>
</svg>
