<svg width="174" height="46" viewBox="0 0 174 46" fill="none" xmlns="http://www.w3.org/2000/svg">
<rect x="0.5" y="0.5" width="173" height="45" rx="11.5" fill="#F8F7F7"/>
<rect x="0.5" y="0.5" width="173" height="45" rx="11.5" stroke="#E1E0E0"/>
<path d="M83.176 16.12H84.568V19.32H86.632V20.472H84.568V24.088H83.176V16.12ZM74.28 23.064V16.824H75.672V21.912C77.592 21.896 79.608 21.752 81.8 21.304L81.96 22.424C79.608 22.92 77.48 23.064 75.416 23.064H74.28ZM75.656 30.008V24.824H84.568V30.008H75.656ZM77.016 28.888H83.224V25.928H77.016V28.888ZM91.0964 16.92H92.4724V18.28C92.4724 20.264 93.7844 22.024 95.8644 22.728L95.1124 23.816C93.5924 23.24 92.4404 22.136 91.8324 20.712C91.2244 22.344 89.9764 23.608 88.2804 24.232L87.5604 23.112C89.7364 22.344 91.0964 20.472 91.0964 18.328V16.92ZM89.8164 27.528C89.8164 25.832 91.6084 24.856 94.5364 24.856C97.4484 24.856 99.2404 25.832 99.2404 27.528C99.2404 29.224 97.4484 30.184 94.5364 30.184C91.6084 30.184 89.8164 29.224 89.8164 27.528ZM91.2084 27.528C91.2084 28.52 92.4404 29.096 94.5364 29.096C96.6164 29.096 97.8644 28.52 97.8644 27.528C97.8644 26.52 96.6164 25.944 94.5364 25.944C92.4404 25.944 91.2084 26.52 91.2084 27.528ZM94.7924 20.2V19.048H97.7844V16.136H99.1764V24.44H97.7844V20.2H94.7924Z" fill="#CECDCD"/>
</svg>
