<svg width="361" height="50" viewBox="0 0 361 50" fill="none" xmlns="http://www.w3.org/2000/svg">
<rect width="361" height="50" rx="12" fill="#100F0F"/>
<path d="M157.82 15.78H160.04V22.54H162.74V24.36H160.04V33.64H157.82V15.78ZM146.9 17.5H155.2V19.26H149.1V27.46C151.88 27.44 154.04 27.32 156.44 26.88L156.66 28.72C153.96 29.22 151.56 29.3 148.36 29.3H146.9V17.5ZM171.7 16.18C175.6 16.18 178.08 17.46 178.08 19.6C178.08 21.74 175.6 23.02 171.7 23.02C167.8 23.02 165.32 21.74 165.32 19.6C165.32 17.46 167.8 16.18 171.7 16.18ZM171.7 17.88C169.1 17.88 167.58 18.46 167.58 19.6C167.58 20.72 169.1 21.32 171.7 21.32C174.28 21.32 175.8 20.72 175.8 19.6C175.8 18.46 174.28 17.88 171.7 17.88ZM165.56 27.42H177.8V33.4H165.56V27.42ZM175.64 29.16H167.72V31.66H175.64V29.16ZM163.66 24.24H179.74V25.98H163.66V24.24ZM189.181 16.78C192.921 16.78 195.761 18.8 195.761 21.82C195.761 24.88 192.921 26.88 189.181 26.88C185.461 26.88 182.601 24.88 182.601 21.82C182.601 18.8 185.461 16.78 189.181 16.78ZM189.181 18.56C186.601 18.56 184.741 19.82 184.741 21.82C184.741 23.84 186.601 25.08 189.181 25.08C191.761 25.08 193.621 23.84 193.621 21.82C193.621 19.82 191.761 18.56 189.181 18.56ZM181.141 29.56H197.261V31.36H181.141V29.56ZM198.621 29.76H205.561V26.84H200.541V21H210.681V18.76H200.501V17.02H212.861V22.74H202.701V25.08H213.261V26.84H207.741V29.76H214.741V31.54H198.621V29.76Z" fill="white"/>
</svg>
