<svg width="174" height="46" viewBox="0 0 174 46" fill="none" xmlns="http://www.w3.org/2000/svg">
<rect x="0.5" y="0.5" width="173" height="45" rx="11.5" fill="#FFEEF6"/>
<rect x="0.5" y="0.5" width="173" height="45" rx="11.5" stroke="#FF4093"/>
<path d="M77.368 17.192C78.648 17.192 79.704 17.944 80.312 19.24H83.848V16.104H85.208V30.232H83.848V24.808H80.408C79.8 26.216 78.712 27.048 77.368 27.048C75.304 27.048 73.848 25.128 73.848 22.12C73.848 19.096 75.304 17.192 77.368 17.192ZM75.16 22.12C75.16 24.376 76.056 25.816 77.368 25.816C78.68 25.816 79.592 24.376 79.592 22.12C79.592 19.864 78.68 18.44 77.368 18.44C76.056 18.44 75.16 19.864 75.16 22.12ZM80.696 20.376C80.824 20.904 80.888 21.48 80.888 22.12C80.888 22.68 80.84 23.192 80.744 23.672H83.848V20.376H80.696ZM91.0964 16.92H92.4724V18.28C92.4724 20.264 93.7844 22.024 95.8644 22.728L95.1124 23.816C93.5924 23.24 92.4404 22.136 91.8324 20.712C91.2244 22.344 89.9764 23.608 88.2804 24.232L87.5604 23.112C89.7364 22.344 91.0964 20.472 91.0964 18.328V16.92ZM89.8164 27.528C89.8164 25.832 91.6084 24.856 94.5364 24.856C97.4484 24.856 99.2404 25.832 99.2404 27.528C99.2404 29.224 97.4484 30.184 94.5364 30.184C91.6084 30.184 89.8164 29.224 89.8164 27.528ZM91.2084 27.528C91.2084 28.52 92.4404 29.096 94.5364 29.096C96.6164 29.096 97.8644 28.52 97.8644 27.528C97.8644 26.52 96.6164 25.944 94.5364 25.944C92.4404 25.944 91.2084 26.52 91.2084 27.528ZM94.7924 20.2V19.048H97.7844V16.136H99.1764V24.44H97.7844V20.2H94.7924Z" fill="#FF4093"/>
</svg>
