<svg width="16" height="16" viewBox="0 0 16 16" fill="none" xmlns="http://www.w3.org/2000/svg">
<path d="M13.6326 8.00007L8.73255 12.9001C8.56589 13.0667 8.48533 13.2612 8.49089 13.4834C8.49644 13.7056 8.58255 13.9001 8.74922 14.0667C8.91589 14.2334 9.11033 14.3167 9.33255 14.3167C9.55477 14.3167 9.74922 14.2334 9.91589 14.0667L15.0492 8.95007C15.1826 8.81674 15.2826 8.66674 15.3492 8.50007C15.4159 8.33341 15.4492 8.16674 15.4492 8.00007C15.4492 7.83341 15.4159 7.66674 15.3492 7.50007C15.2826 7.33341 15.1826 7.18341 15.0492 7.05007L9.91589 1.91674C9.74922 1.75007 9.552 1.66952 9.32422 1.67507C9.09644 1.68063 8.89922 1.76674 8.73255 1.93341C8.56589 2.10007 8.48255 2.29452 8.48255 2.51674C8.48255 2.73896 8.56589 2.93341 8.73255 3.10007L13.6326 8.00007Z" fill="#888787"/>
</svg>
