<svg width="112" height="84" viewBox="0 0 112 84" fill="none" xmlns="http://www.w3.org/2000/svg">
<g filter="url(#filter0_d_3602_9230)">
<rect x="8" y="8" width="96" height="68" rx="4" fill="white" shape-rendering="crispEdges"/>
<path d="M25.422 19.744H26.626V28.746H25.422V19.744ZM16.63 26.044C18.506 25.316 19.696 23.538 19.696 21.662V20.416H20.914V21.662C20.914 23.482 22.09 25.148 23.952 25.82L23.322 26.786C21.922 26.254 20.858 25.176 20.312 23.804C19.78 25.26 18.716 26.436 17.26 27.01L16.63 26.044ZM18.688 31.784V27.92H19.906V30.804H27.004V31.784H18.688ZM29.9443 20.948H38.6103V22.152C38.6103 23.678 38.6103 25.372 38.1623 27.878L36.9303 27.738C37.3923 25.372 37.3923 23.636 37.3923 22.152V21.942H29.9443V20.948ZM28.7683 30.356V29.348H33.0523V24.966H34.2563V29.348H39.9123V30.356H28.7683ZM49.2927 19.744H50.5107V24.77H52.4987V25.778H50.5107V32.064H49.2927V19.744ZM40.9347 22.67V21.69H43.9867V19.898H45.2187V21.69H48.2007V22.67H40.9347ZM41.6067 26.492C41.6067 24.826 42.8807 23.65 44.6167 23.65C46.3667 23.65 47.6407 24.826 47.6407 26.492C47.6407 28.172 46.3667 29.334 44.6167 29.334C42.8807 29.334 41.6067 28.172 41.6067 26.492ZM42.7687 26.492C42.7687 27.584 43.5387 28.326 44.6167 28.326C45.6947 28.326 46.4647 27.584 46.4647 26.492C46.4647 25.414 45.6947 24.644 44.6167 24.644C43.5387 24.644 42.7687 25.414 42.7687 26.492ZM62.145 19.73H63.363V32.05H62.145V19.73ZM53.367 28.816C56.643 27.248 58.253 24.938 58.491 22.04H53.941V21.046H59.723C59.723 24.644 58.169 27.766 54.011 29.782L53.367 28.816Z" fill="#888787"/>
<path d="M16 42H96" stroke="#EEEDED"/>
<path d="M16.742 53.858H19.486V51.968H20.69V53.858H23.392V54.824H20.69V55.706C20.69 57.652 21.88 59.654 23.658 60.536L22.986 61.46C21.656 60.802 20.62 59.5 20.102 57.946C19.57 59.612 18.478 61.012 17.092 61.684L16.406 60.76C18.24 59.892 19.5 57.792 19.5 55.706V54.824H16.742V53.858ZM24.806 64.064V51.744H26.024V56.77H28.026V57.778H26.024V64.064H24.806ZM37.1403 51.73H38.3583V55.356H40.1643V56.35H38.3583V60.648H37.1403V51.73ZM29.3423 58.506V52.78H34.7883V53.774H30.5463V57.498C32.9403 57.498 34.3123 57.414 35.8803 57.092L36.0203 58.072C34.3403 58.408 32.9123 58.506 30.3083 58.506H29.3423ZM30.6583 63.784V59.752H31.8623V62.804H38.8903V63.784H30.6583ZM49.2927 51.744H50.5107V56.77H52.4987V57.778H50.5107V64.064H49.2927V51.744ZM40.9347 54.67V53.69H43.9867V51.898H45.2187V53.69H48.2007V54.67H40.9347ZM41.6067 58.492C41.6067 56.826 42.8807 55.65 44.6167 55.65C46.3667 55.65 47.6407 56.826 47.6407 58.492C47.6407 60.172 46.3667 61.334 44.6167 61.334C42.8807 61.334 41.6067 60.172 41.6067 58.492ZM42.7687 58.492C42.7687 59.584 43.5387 60.326 44.6167 60.326C45.6947 60.326 46.4647 59.584 46.4647 58.492C46.4647 57.414 45.6947 56.644 44.6167 56.644C43.5387 56.644 42.7687 57.414 42.7687 58.492ZM62.145 51.73H63.363V64.05H62.145V51.73ZM53.367 60.816C56.643 59.248 58.253 56.938 58.491 54.04H53.941V53.046H59.723C59.723 56.644 58.169 59.766 54.011 61.782L53.367 60.816Z" fill="#888787"/>
</g>
<defs>
<filter id="filter0_d_3602_9230" x="0" y="0" width="112" height="84" filterUnits="userSpaceOnUse" color-interpolation-filters="sRGB">
<feFlood flood-opacity="0" result="BackgroundImageFix"/>
<feColorMatrix in="SourceAlpha" type="matrix" values="0 0 0 0 0 0 0 0 0 0 0 0 0 0 0 0 0 0 127 0" result="hardAlpha"/>
<feOffset/>
<feGaussianBlur stdDeviation="4"/>
<feComposite in2="hardAlpha" operator="out"/>
<feColorMatrix type="matrix" values="0 0 0 0 0 0 0 0 0 0 0 0 0 0 0 0 0 0 0.25 0"/>
<feBlend mode="normal" in2="BackgroundImageFix" result="effect1_dropShadow_3602_9230"/>
<feBlend mode="normal" in="SourceGraphic" in2="effect1_dropShadow_3602_9230" result="shape"/>
</filter>
</defs>
</svg>
