<svg width="79" height="67" viewBox="0 0 79 67" fill="none" xmlns="http://www.w3.org/2000/svg">
<path d="M26.1274 19.1938V13.8828C26.1274 13.3305 25.6797 12.8828 25.1274 12.8828H14.2016C13.6494 12.8828 13.2016 13.3305 13.2016 13.8828V19.1938C13.2016 19.7461 13.6494 20.1938 14.2016 20.1938H25.1274C25.6797 20.1938 26.1274 19.7461 26.1274 19.1938Z" fill="#100F0F"/>
<path d="M51.944 0H27.1274C26.5751 0 26.1274 0.447716 26.1274 1V11.8673C26.1274 12.4196 26.5751 12.8673 27.1274 12.8673H51.944C52.4963 12.8673 52.944 12.4196 52.944 11.8673V1C52.944 0.447715 52.4963 0 51.944 0Z" fill="#100F0F"/>
<path d="M13.2036 45.3963V21.1938C13.2036 20.6416 12.7559 20.1938 12.2036 20.1938H1C0.447715 20.1938 0 20.6416 0 21.1938V45.3963C0 45.9486 0.447715 46.3963 1 46.3963H12.2036C12.7559 46.3963 13.2036 45.9486 13.2036 45.3963Z" fill="#100F0F"/>
<path d="M65.7973 19.1791V13.8682C65.7973 13.3159 65.3496 12.8682 64.7973 12.8682H53.8716C53.3193 12.8682 52.8716 13.3159 52.8716 13.8682V19.1791C52.8716 19.7314 53.3193 20.1791 53.8716 20.1791H64.7973C65.3496 20.1791 65.7973 19.7314 65.7973 19.1791Z" fill="#100F0F"/>
<path d="M26.1274 19.1938V13.8828C26.1274 13.3305 25.6797 12.8828 25.1274 12.8828H14.2016C13.6494 12.8828 13.2016 13.3305 13.2016 13.8828V19.1938C13.2016 19.7461 13.6494 20.1938 14.2016 20.1938H25.1274C25.6797 20.1938 26.1274 19.7461 26.1274 19.1938Z" fill="#100F0F"/>
<path d="M51.944 0H27.1274C26.5751 0 26.1274 0.447716 26.1274 1V11.8673C26.1274 12.4196 26.5751 12.8673 27.1274 12.8673H51.944C52.4963 12.8673 52.944 12.4196 52.944 11.8673V1C52.944 0.447715 52.4963 0 51.944 0Z" fill="#100F0F"/>
<path d="M65.7973 19.1791V13.8682C65.7973 13.3159 65.3496 12.8682 64.7973 12.8682H53.8716C53.3193 12.8682 52.8716 13.3159 52.8716 13.8682V19.1791C52.8716 19.7314 53.3193 20.1791 53.8716 20.1791H64.7973C65.3496 20.1791 65.7973 19.7314 65.7973 19.1791Z" fill="#100F0F"/>
<path d="M52.8696 47.3219V52.6328C52.8696 53.1851 53.3173 53.6328 53.8696 53.6328H64.7954C65.3476 53.6328 65.7954 53.1851 65.7954 52.6328V47.3219C65.7954 46.7696 65.3476 46.3219 64.7954 46.3219H53.8696C53.3173 46.3219 52.8696 46.7696 52.8696 47.3219Z" fill="#100F0F"/>
<path d="M27.0726 66.501H51.8891C52.4414 66.501 52.8891 66.0533 52.8891 65.501V54.6337C52.8891 54.0814 52.4414 53.6337 51.8891 53.6337H27.0726C26.5203 53.6337 26.0726 54.0814 26.0726 54.6337V65.501C26.0726 66.0533 26.5203 66.501 27.0726 66.501Z" fill="#100F0F"/>
<path d="M13.2036 47.3072V52.6182C13.2036 53.1704 13.6513 53.6182 14.2036 53.6182H25.1293C25.6816 53.6182 26.1293 53.1704 26.1293 52.6182V47.3072C26.1293 46.7549 25.6816 46.3072 25.1293 46.3072H14.2036C13.6513 46.3072 13.2036 46.7549 13.2036 47.3072Z" fill="#100F0F"/>
<path d="M79.0024 45.3811V21.1787C79.0024 20.6264 78.5547 20.1787 78.0024 20.1787H66.7988C66.2465 20.1787 65.7988 20.6264 65.7988 21.1787V45.3811C65.7988 45.9334 66.2465 46.3811 66.7988 46.3811H78.0024C78.5547 46.3811 79.0024 45.9334 79.0024 45.3811Z" fill="#100F0F"/>
<path d="M24.5326 34.4162C23.3801 34.1976 23.3802 32.3047 24.5327 32.0864C33.1305 30.4575 36.3459 28.0967 38.2382 21.382C38.546 20.2899 40.4479 20.289 40.7566 21.3808C42.6548 28.0948 45.8691 30.4563 54.4564 32.0853C55.6089 32.3039 55.6087 34.1967 54.4563 34.415C45.8585 36.0439 42.6431 38.4047 40.7508 45.1194C40.443 46.2115 38.5411 46.2124 38.2324 45.1206C36.3342 38.4066 33.1199 36.0451 24.5326 34.4162Z" fill="#100F0F"/>
<path d="M24.5326 34.4162C23.3801 34.1976 23.3802 32.3047 24.5327 32.0864C33.1305 30.4575 36.3459 28.0967 38.2382 21.382C38.546 20.2899 40.4479 20.289 40.7566 21.3808C42.6548 28.0948 45.8691 30.4563 54.4564 32.0853C55.6089 32.3039 55.6087 34.1967 54.4563 34.415C45.8585 36.0439 42.6431 38.4047 40.7508 45.1194C40.443 46.2115 38.5411 46.2124 38.2324 45.1206C36.3342 38.4066 33.1199 36.0451 24.5326 34.4162Z" fill="#100F0F"/>
</svg>
