<svg width="120" height="113" viewBox="0 0 120 113" fill="none" xmlns="http://www.w3.org/2000/svg">
<path d="M89.6234 23.04C87.8288 23.04 86.3691 21.5998 86.3333 19.815V15.2831C86.3333 14.116 85.3873 13.1667 84.2169 13.1667H76.46C74.6426 13.1667 73.1667 11.6939 73.1667 9.87337V2.11642C73.1667 0.9493 72.2206 0 71.0502 0H48.9498C47.7826 0 46.8333 0.946049 46.8333 2.11642V9.87337C46.8333 11.6907 45.3606 13.1667 43.54 13.1667H35.7831C34.616 13.1667 33.6667 14.1127 33.6667 15.2831V19.8183C33.6667 19.7955 33.6667 19.7728 33.6667 19.75C33.6667 21.5673 32.194 23.0433 30.3766 23.0433H22.6164C21.4493 23.0433 20.5 23.9893 20.5 25.1597V47.2602C20.5 48.4273 21.446 49.3766 22.6164 49.3766H30.3766C32.194 49.3766 33.6667 50.8493 33.6667 52.6667C33.6667 52.5951 33.6667 52.5269 33.6732 52.4553V57.1303C33.6732 58.2975 34.6192 59.2467 35.7896 59.2467H43.5465C45.3639 59.2467 46.8398 60.7195 46.8398 62.54V70.297C46.8398 71.4641 47.7859 72.4134 48.9563 72.4134H71.0568C72.2239 72.4134 73.1732 71.4674 73.1732 70.297V62.54C73.1732 60.7227 74.6459 59.2467 76.4665 59.2467H84.2234C85.3905 59.2467 86.3398 58.3007 86.3398 57.1303V52.4553C86.4471 50.7356 87.8776 49.3734 89.6234 49.3734H97.3836C98.5507 49.3734 99.5 48.4273 99.5 47.257V25.1565C99.5 23.9893 98.5539 23.04 97.3836 23.04H89.6234ZM73.1732 49.3701V55.9535C73.1732 57.7708 71.7005 59.2435 69.8799 59.2435H50.1299C48.3126 59.2435 46.8398 57.7708 46.8398 55.9535V49.3701H36.9275C35.1231 49.3539 33.6667 47.8877 33.6667 46.0801V26.3301C33.6667 24.5128 35.1394 23.04 36.96 23.04C36.947 23.04 36.9372 23.04 36.9242 23.04H46.8333V16.4567C46.8333 14.6394 48.3061 13.1667 50.1266 13.1667H69.8766C71.694 13.1667 73.1667 14.6394 73.1667 16.4567V23.04H83.04C84.8574 23.04 86.3333 24.5128 86.3333 26.3333V46.0833C86.3333 47.9007 84.8606 49.3734 83.04 49.3734H73.1732V49.3701Z" fill="#010101"/>
<path d="M73.3141 36.9322C64.7411 38.6455 62.4426 40.944 60.7293 49.517H59.2761C57.5628 40.944 55.2644 38.6455 46.6914 36.9322V35.479C55.2644 33.7657 57.5628 31.4673 59.2761 22.8943H60.7293C62.4426 31.4673 64.7411 33.7657 73.3141 35.479V36.9322Z" fill="#010101"/>
<path d="M22.2411 85.3474C22.7933 85.3474 23.2411 85.7951 23.2411 86.3474V87.5869C23.2411 88.1392 22.7933 88.5869 22.2411 88.5869H11.1546C10.6024 88.5869 10.1546 89.0346 10.1546 89.5869V94.9697H7.72266C7.17037 94.9697 6.72266 94.522 6.72266 93.9697V88.7793C6.72266 86.8869 8.26224 85.3474 10.1546 85.3474H22.2411ZM10.1546 94.9697H20.643C22.4392 94.9697 23.8826 96.4131 23.8826 98.2093V104.368C23.8826 106.26 22.343 107.8 20.4506 107.8H8.36415C7.81186 107.8 7.36415 107.352 7.36415 106.8V105.624C7.36415 105.072 7.81186 104.624 8.36415 104.624H19.4506C20.0029 104.624 20.4506 104.176 20.4506 103.624V99.2093C20.4506 98.657 20.0029 98.2093 19.4506 98.2093H11.1546C10.6024 98.2093 10.1546 97.7615 10.1546 97.2093V94.9697Z" fill="#100F0F"/>
<path d="M26.778 86.3474C26.778 85.7951 27.2258 85.3474 27.778 85.3474H30.4666C32.2307 85.3474 33.642 86.7586 33.642 88.5227V88.5548H27.778C27.2258 88.5548 26.778 88.1071 26.778 87.5548V86.3474ZM37.074 88.5548C37.074 86.7907 38.5173 85.3474 40.2814 85.3474H42.9379C43.4902 85.3474 43.9379 85.7951 43.9379 86.3474V87.5548C43.9379 88.1071 43.4902 88.5548 42.9379 88.5548H37.074ZM34.642 107.8C34.0897 107.8 33.642 107.352 33.642 106.8V88.5548H37.074V106.8C37.074 107.352 36.6263 107.8 36.074 107.8H34.642Z" fill="#100F0F"/>
<path d="M60.3895 87.2821C60.5586 87.8078 60.0961 88.2661 59.5438 88.2661H51.2479C50.6956 88.2661 50.2479 88.7139 50.2479 89.2661V104.592C48.3555 104.592 46.8159 103.053 46.8159 101.16V88.2341C46.8479 86.47 48.2592 85.0266 50.0554 85.0266H57.3363C58.7587 85.0266 59.9725 85.9858 60.3895 87.2821ZM60.5438 89.2341C60.5438 88.6818 60.9915 88.2341 61.5438 88.2341H62.9758C63.5281 88.2341 63.9758 88.6818 63.9758 89.2341V104.592C63.9758 106.356 62.5324 107.8 60.7683 107.8H51.2479C50.6956 107.8 50.2479 107.352 50.2479 106.8V104.592H59.5438C60.0961 104.592 60.5438 104.144 60.5438 103.592V89.2341Z" fill="#100F0F"/>
<path d="M84.9934 88.7793V93.1736C84.9934 94.7233 83.9608 96.0365 82.5475 96.4612C82.0186 96.6201 81.5614 97.0532 81.5614 97.6055V99.7809H72.2655C71.7132 99.7809 71.2655 100.229 71.2655 100.781V106.8C71.2655 107.352 70.8178 107.8 70.2655 107.8H68.8335C68.2812 107.8 67.8335 107.352 67.8335 106.8V88.7793C67.8335 86.8869 69.3731 85.3474 71.2655 85.3474H81.5614C83.4538 85.3474 84.9934 86.8869 84.9934 88.7793ZM72.2655 88.5548C71.7132 88.5548 71.2655 89.0025 71.2655 89.5548V95.5735C71.2655 96.1257 71.7132 96.5735 72.2655 96.5735H80.5614C81.1137 96.5735 81.5614 96.1257 81.5614 95.5735V89.5548C81.5614 89.0025 81.1137 88.5548 80.5614 88.5548H72.2655ZM84.9934 103.213V106.8C84.9934 107.352 84.5457 107.8 83.9934 107.8H82.5614C82.0091 107.8 81.5614 107.352 81.5614 106.8V99.7809C83.4538 99.7809 84.9934 101.32 84.9934 103.213Z" fill="#100F0F"/>
<path d="M89.8511 107.8C89.2988 107.8 88.8511 107.352 88.8511 106.8V86.4115C88.8511 85.8592 89.2988 85.4115 89.8511 85.4115H91.2831C91.8354 85.4115 92.2831 85.8592 92.2831 86.4115V106.8C92.2831 107.352 91.8354 107.8 91.2831 107.8H89.8511Z" fill="#100F0F"/>
<path d="M96.118 91.5378V86.3474C96.118 85.7951 96.5657 85.3474 97.118 85.3474H98.55C99.1023 85.3474 99.55 85.7951 99.55 86.3474V94.9697C97.6576 94.9697 96.118 93.4302 96.118 91.5378ZM112.278 85.3474C112.83 85.3474 113.278 85.7951 113.278 86.3474V91.5378C113.278 93.4302 111.738 94.9697 109.846 94.9697V86.3474C109.846 85.7951 110.294 85.3474 110.846 85.3474H112.278ZM98.5639 98.2895C99.0928 98.1305 99.55 97.6974 99.55 97.1451V94.9697H109.846V97.1451C109.846 97.6974 110.303 98.1305 110.832 98.2895C112.245 98.7142 113.278 100.027 113.278 101.577V106.8C113.278 107.352 112.83 107.8 112.278 107.8H110.846C110.294 107.8 109.846 107.352 109.846 106.8V99.1772C109.846 98.6249 109.398 98.1772 108.846 98.1772H100.55C99.9977 98.1772 99.55 98.6249 99.55 99.1772V106.8C99.55 107.352 99.1023 107.8 98.55 107.8H97.118C96.5657 107.8 96.118 107.352 96.118 106.8V101.577C96.118 100.027 97.1506 98.7142 98.5639 98.2895Z" fill="#100F0F"/>
</svg>
