<svg width="120" height="32" viewBox="0 0 120 32" fill="none" xmlns="http://www.w3.org/2000/svg">
<path d="M22.2411 4.93403C22.7933 4.93403 23.2411 5.38174 23.2411 5.93403V7.17356C23.2411 7.72584 22.7933 8.17356 22.2411 8.17356H11.1546C10.6024 8.17356 10.1546 8.62127 10.1546 9.17356V14.5564H7.72266C7.17037 14.5564 6.72266 14.1087 6.72266 13.5564V8.36601C6.72266 6.47361 8.26224 4.93403 10.1546 4.93403H22.2411ZM10.1546 14.5564H20.643C22.4392 14.5564 23.8826 15.9998 23.8826 17.7959V23.9542C23.8826 25.8466 22.343 27.3862 20.4506 27.3862H8.36415C7.81186 27.3862 7.36415 26.9385 7.36415 26.3862V25.2108C7.36415 24.6586 7.81186 24.2108 8.36415 24.2108H19.4506C20.0029 24.2108 20.4506 23.7631 20.4506 23.2108V18.7959C20.4506 18.2436 20.0029 17.7959 19.4506 17.7959H11.1546C10.6024 17.7959 10.1546 17.3482 10.1546 16.7959V14.5564Z" fill="#100F0F"/>
<path d="M26.778 5.93403C26.778 5.38174 27.2258 4.93403 27.778 4.93403H30.4666C32.2307 4.93403 33.642 6.34531 33.642 8.10941V8.14148H27.778C27.2258 8.14148 26.778 7.69377 26.778 7.14148V5.93403ZM37.074 8.14148C37.074 6.37738 38.5173 4.93403 40.2814 4.93403H42.9379C43.4902 4.93403 43.9379 5.38174 43.9379 5.93403V7.14148C43.9379 7.69377 43.4902 8.14148 42.9379 8.14148H37.074ZM34.642 27.3862C34.0897 27.3862 33.642 26.9385 33.642 26.3862V8.14148H37.074V26.3862C37.074 26.9385 36.6263 27.3862 36.074 27.3862H34.642Z" fill="#100F0F"/>
<path d="M60.3895 6.86872C60.5586 7.39448 60.0961 7.85281 59.5438 7.85281H51.2479C50.6956 7.85281 50.2479 8.30053 50.2479 8.85281V24.1788C48.3555 24.1788 46.8159 22.6392 46.8159 20.7468V7.82074C46.8479 6.05664 48.2592 4.61328 50.0554 4.61328H57.3363C58.7587 4.61328 59.9725 5.57244 60.3895 6.86872ZM60.5438 8.82074C60.5438 8.26846 60.9915 7.82074 61.5438 7.82074H62.9758C63.5281 7.82074 63.9758 8.26845 63.9758 8.82074V24.1788C63.9758 25.9429 62.5324 27.3862 60.7683 27.3862H51.2479C50.6956 27.3862 50.2479 26.9385 50.2479 26.3862V24.1788H59.5438C60.0961 24.1788 60.5438 23.7311 60.5438 23.1788V8.82074Z" fill="#100F0F"/>
<path d="M84.9934 8.36601V12.7602C84.9934 14.31 83.9608 15.6232 82.5475 16.0478C82.0186 16.2068 81.5614 16.6399 81.5614 17.1922V19.3676H72.2655C71.7132 19.3676 71.2655 19.8153 71.2655 20.3676V26.3862C71.2655 26.9385 70.8178 27.3862 70.2655 27.3862H68.8335C68.2812 27.3862 67.8335 26.9385 67.8335 26.3862V8.36601C67.8335 6.47361 69.3731 4.93403 71.2655 4.93403H81.5614C83.4538 4.93403 84.9934 6.47361 84.9934 8.36601ZM72.2655 8.14148C71.7132 8.14148 71.2655 8.5892 71.2655 9.14148V15.1601C71.2655 15.7124 71.7132 16.1601 72.2655 16.1601H80.5614C81.1137 16.1601 81.5614 15.7124 81.5614 15.1601V9.14148C81.5614 8.5892 81.1137 8.14148 80.5614 8.14148H72.2655ZM84.9934 22.7996V26.3862C84.9934 26.9385 84.5457 27.3862 83.9934 27.3862H82.5614C82.0091 27.3862 81.5614 26.9385 81.5614 26.3862V19.3676C83.4538 19.3676 84.9934 20.9072 84.9934 22.7996Z" fill="#100F0F"/>
<path d="M89.8511 27.3862C89.2988 27.3862 88.8511 26.9385 88.8511 26.3862V5.99818C88.8511 5.44589 89.2988 4.99818 89.8511 4.99818H91.2831C91.8354 4.99818 92.2831 5.44589 92.2831 5.99818V26.3862C92.2831 26.9385 91.8354 27.3862 91.2831 27.3862H89.8511Z" fill="#100F0F"/>
<path d="M96.118 11.1244V5.93403C96.118 5.38174 96.5657 4.93403 97.118 4.93403H98.55C99.1023 4.93403 99.55 5.38174 99.55 5.93403V14.5564C97.6576 14.5564 96.118 13.0168 96.118 11.1244ZM112.278 4.93403C112.83 4.93403 113.278 5.38174 113.278 5.93403V11.1244C113.278 13.0168 111.738 14.5564 109.846 14.5564V5.93403C109.846 5.38174 110.294 4.93403 110.846 4.93403H112.278ZM98.5639 17.8761C99.0928 17.7172 99.55 17.2841 99.55 16.7318V14.5564H109.846V16.7318C109.846 17.2841 110.303 17.7172 110.832 17.8761C112.245 18.3008 113.278 19.614 113.278 21.1638V26.3862C113.278 26.9385 112.83 27.3862 112.278 27.3862H110.846C110.294 27.3862 109.846 26.9385 109.846 26.3862V18.7639C109.846 18.2116 109.398 17.7639 108.846 17.7639H100.55C99.9977 17.7639 99.55 18.2116 99.55 18.7639V26.3862C99.55 26.9385 99.1023 27.3862 98.55 27.3862H97.118C96.5657 27.3862 96.118 26.9385 96.118 26.3862V21.1638C96.118 19.614 97.1506 18.3008 98.5639 17.8761Z" fill="#100F0F"/>
</svg>
