<svg width="100" height="100" viewBox="0 0 100 100" fill="none" xmlns="http://www.w3.org/2000/svg">
<path d="M35.2935 34.637V28.595C35.2935 28.0427 34.8458 27.595 34.2935 27.595H22.0751C21.5228 27.595 21.0751 28.0427 21.0751 28.595V34.637C21.0751 35.1893 21.5228 35.637 22.0751 35.637H34.2935C34.8458 35.637 35.2935 35.1893 35.2935 34.637Z" fill="white"/>
<path d="M63.7917 13.4238H36.2935C35.7412 13.4238 35.2935 13.8715 35.2935 14.4238V26.5778C35.2935 27.1301 35.7412 27.5778 36.2935 27.5778H63.7917C64.344 27.5778 64.7917 27.1301 64.7917 26.5778V14.4238C64.7917 13.8715 64.344 13.4238 63.7917 13.4238Z" fill="white"/>
<path d="M21.0747 63.4596V36.637C21.0747 36.0847 20.627 35.637 20.0747 35.637H7.55078C6.9985 35.637 6.55078 36.0847 6.55078 36.637V63.4596C6.55078 64.0119 6.9985 64.4596 7.55078 64.4596H20.0747C20.627 64.4596 21.0747 64.0119 21.0747 63.4596Z" fill="white"/>
<path d="M78.9302 34.6208V28.5787C78.9302 28.0265 78.4825 27.5787 77.9302 27.5787H65.7119C65.1596 27.5787 64.7119 28.0265 64.7119 28.5787V34.6208C64.7119 35.1731 65.1596 35.6208 65.7118 35.6208H77.9302C78.4825 35.6208 78.9302 35.1731 78.9302 34.6208Z" fill="white"/>
<path d="M35.2935 34.637V28.595C35.2935 28.0427 34.8458 27.595 34.2935 27.595H22.0751C21.5228 27.595 21.0751 28.0427 21.0751 28.595V34.637C21.0751 35.1893 21.5228 35.637 22.0751 35.637H34.2935C34.8458 35.637 35.2935 35.1893 35.2935 34.637Z" fill="white"/>
<path d="M63.7917 13.4238H36.2935C35.7412 13.4238 35.2935 13.8715 35.2935 14.4238V26.5778C35.2935 27.1301 35.7412 27.5778 36.2935 27.5778H63.7917C64.344 27.5778 64.7917 27.1301 64.7917 26.5778V14.4238C64.7917 13.8715 64.344 13.4238 63.7917 13.4238Z" fill="white"/>
<path d="M78.9302 34.6208V28.5787C78.9302 28.0265 78.4825 27.5787 77.9302 27.5787H65.7119C65.1596 27.5787 64.7119 28.0265 64.7119 28.5787V34.6208C64.7119 35.1731 65.1596 35.6208 65.7118 35.6208H77.9302C78.4825 35.6208 78.9302 35.1731 78.9302 34.6208Z" fill="white"/>
<path d="M64.7075 65.3778V71.4198C64.7075 71.9721 65.1553 72.4198 65.7075 72.4198H77.9259C78.4782 72.4198 78.9259 71.9721 78.9259 71.4198V65.3778C78.9259 64.8255 78.4782 64.3778 77.9259 64.3778H65.7075C65.1553 64.3778 64.7075 64.8255 64.7075 65.3778Z" fill="white"/>
<path d="M36.2327 86.5747H63.731C64.2833 86.5747 64.731 86.127 64.731 85.5747V73.4207C64.731 72.8684 64.2833 72.4207 63.731 72.4207H36.2327C35.6805 72.4207 35.2327 72.8684 35.2327 73.4207V85.5747C35.2327 86.127 35.6805 86.5747 36.2327 86.5747Z" fill="white"/>
<path d="M21.0747 65.3615V71.4036C21.0747 71.9558 21.5224 72.4036 22.0747 72.4036H34.2931C34.8453 72.4036 35.2931 71.9558 35.2931 71.4036V65.3615C35.2931 64.8092 34.8453 64.3615 34.2931 64.3615H22.0747C21.5224 64.3615 21.0747 64.8092 21.0747 65.3615Z" fill="white"/>
<path d="M93.4536 63.4434V36.6207C93.4536 36.0684 93.0059 35.6207 92.4536 35.6207H79.9297C79.3774 35.6207 78.9297 36.0684 78.9297 36.6207V63.4434C78.9297 63.9957 79.3774 64.4434 79.9297 64.4434H92.4536C93.0059 64.4434 93.4536 63.9957 93.4536 63.4434Z" fill="white"/>
<path d="M33.2532 51.267C32.0986 51.0599 32.0989 49.1947 33.2534 48.9878C43.5499 47.143 47.1472 44.5229 49.2614 36.4733C49.5496 35.376 51.4166 35.375 51.7058 36.4722C53.8274 44.5211 57.4235 47.1419 67.7081 48.9867C68.8627 49.1938 68.8624 51.059 67.7078 51.2659C57.4114 53.1107 53.8141 55.7308 51.6999 63.7804C51.4117 64.8778 49.5447 64.8787 49.2555 63.7815C47.1339 55.7326 43.5378 53.1118 33.2532 51.267Z" fill="white"/>
<path d="M33.2532 51.267C32.0986 51.0599 32.0989 49.1947 33.2534 48.9878C43.5499 47.143 47.1472 44.5229 49.2614 36.4733C49.5496 35.376 51.4166 35.375 51.7058 36.4722C53.8274 44.5211 57.4235 47.1419 67.7081 48.9867C68.8627 49.1938 68.8624 51.059 67.7078 51.2659C57.4114 53.1107 53.8141 55.7308 51.6999 63.7804C51.4117 64.8778 49.5447 64.8787 49.2555 63.7815C47.1339 55.7326 43.5378 53.1118 33.2532 51.267Z" fill="white"/>
</svg>
