<svg width="360" height="48" viewBox="0 0 360 48" fill="none" xmlns="http://www.w3.org/2000/svg">
<rect width="360" height="48" rx="8" fill="#000000"/>
<path d="M131.21 16.0581C132.078 15.0121 132.656 13.5841 132.488 12.1301C131.236 12.1841 129.72 12.9601 128.826 14.0061C128.022 14.9201 127.324 16.3921 127.518 17.7901C128.91 17.8921 130.316 17.0781 131.21 16.0581ZM132.474 17.9941C130.634 17.8921 129.062 19.0061 128.178 19.0061C127.268 19.0061 125.91 18.0481 124.394 18.0741C122.502 18.1001 120.74 19.1381 119.778 20.8081C117.802 24.1481 119.266 29.1181 121.19 31.8281C122.126 33.1581 123.244 34.6421 124.708 34.5901C126.094 34.5381 126.616 33.7101 128.334 33.7101C130.052 33.7101 130.522 34.5901 131.986 34.5641C133.502 34.5381 134.464 33.2081 135.4 31.8781C136.466 30.3641 136.882 28.9001 136.908 28.8221C136.882 28.7961 134.1 27.7321 134.074 24.5381C134.048 21.8541 136.258 20.5681 136.362 20.4941C135.114 18.6401 133.164 18.0481 132.474 17.9941Z" fill="white"/>
<text x="180" y="28" text-anchor="middle" fill="white" font-family="system-ui, -apple-system, sans-serif" font-size="15" font-weight="600">Apple로 로그인</text>
</svg>
