<svg width="106" height="29" viewBox="0 0 106 29" fill="none" xmlns="http://www.w3.org/2000/svg">
<rect x="0.5" y="0.5" width="105" height="28" rx="3.5" fill="#FFEEF6"/>
<rect x="0.5" y="0.5" width="105" height="28" rx="3.5" stroke="#FDBCD9"/>
<path d="M14.276 10.156V10.732C14.276 11.252 14.26 11.752 14.228 12.232C14.196 12.712 14.12 13.252 14 13.852L12.98 13.744C13.172 12.832 13.268 11.92 13.268 11.008H9.02V10.156H14.276ZM11.588 12.52V14.728C12.884 14.672 14.012 14.58 14.972 14.452L15.044 15.208C13.404 15.496 11.22 15.64 8.492 15.64L8.372 14.788C9.308 14.788 10.04 14.78 10.568 14.764V12.52H11.588ZM16.7 9.34V12.76H18.188V13.612H16.7V17.284H15.656V9.34H16.7ZM11.012 16.564V18.832H17.036V19.672H9.98V16.564H11.012ZM27.5963 9.352V15.352H26.5643V9.352H27.5963ZM27.5963 15.928V19.768H20.7563V15.928H27.5963ZM21.7643 16.756V18.928H26.5883V16.756H21.7643ZM22.6883 9.76V10.768C22.6883 11.504 22.9283 12.176 23.4083 12.784C23.8963 13.384 24.5363 13.816 25.3283 14.08L24.8243 14.884C24.2163 14.684 23.6803 14.376 23.2163 13.96C22.7603 13.544 22.4163 13.056 22.1843 12.496C21.9443 13.096 21.5923 13.624 21.1283 14.08C20.6723 14.528 20.1323 14.864 19.5083 15.088L18.9923 14.272C19.7923 13.992 20.4323 13.532 20.9123 12.892C21.4003 12.244 21.6443 11.536 21.6443 10.768V9.76H22.6883ZM38.1142 10.072V10.912H35.8102V11.26C35.8102 11.956 36.0382 12.596 36.4942 13.18C36.9582 13.764 37.5782 14.188 38.3542 14.452L37.8262 15.28C37.2422 15.072 36.7342 14.768 36.3022 14.368C35.8702 13.96 35.5382 13.488 35.3062 12.952C35.0742 13.536 34.7342 14.052 34.2862 14.5C33.8382 14.94 33.3062 15.268 32.6902 15.484L32.1382 14.668C32.9382 14.388 33.5782 13.936 34.0582 13.312C34.5382 12.688 34.7782 12.004 34.7782 11.26V10.912H32.4502V10.072H38.1142ZM40.4062 9.352V12.1H41.9542V12.964H40.4062V15.7H39.3622V9.352H40.4062ZM40.4062 16.264V19.912H39.3622V17.104H33.5302V16.264H40.4062ZM52.2265 14.428V15.268H47.9665V16.456H51.0625V19.768H43.8505V16.456H46.9345V15.268H42.6865V14.428H52.2265ZM51.3145 9.688V10.528H49.7665V12.652H51.2785V13.492H43.6105V12.652H45.1225V10.528H43.5625V9.688H51.3145ZM44.8705 17.272V18.928H50.0425V17.272H44.8705ZM48.7345 12.652V10.528H46.1665V12.652H48.7345ZM63.5964 11.212V9.352H64.6404V14.776H63.5964V12.064H61.3524V11.212H63.5964ZM64.6404 15.316V17.884H58.8684V18.94H65.0124V19.768H57.8364V17.104H63.6084V16.132H57.8244V15.316H64.6404ZM59.5644 9.676V10.636C59.5644 11.316 59.7964 11.948 60.2604 12.532C60.7324 13.108 61.3524 13.52 62.1204 13.768L61.5804 14.572C61.0124 14.38 60.5124 14.088 60.0804 13.696C59.6484 13.296 59.3124 12.836 59.0724 12.316C58.8484 12.9 58.5124 13.408 58.0644 13.84C57.6164 14.272 57.0844 14.596 56.4684 14.812L55.9164 13.996C56.7164 13.724 57.3524 13.284 57.8244 12.676C58.3044 12.068 58.5444 11.388 58.5444 10.636V9.676H59.5644ZM74.0847 12.064V9.352H75.1287V15.628H74.0847V12.916H72.0567V12.064H74.0847ZM71.6367 15.94C72.7327 15.94 73.5927 16.116 74.2167 16.468C74.8487 16.82 75.1647 17.308 75.1647 17.932C75.1647 18.556 74.8487 19.04 74.2167 19.384C73.5927 19.728 72.7327 19.9 71.6367 19.9C70.5327 19.9 69.6687 19.728 69.0447 19.384C68.4207 19.04 68.1087 18.556 68.1087 17.932C68.1087 17.308 68.4207 16.82 69.0447 16.468C69.6767 16.116 70.5407 15.94 71.6367 15.94ZM71.6367 16.756C70.8527 16.756 70.2407 16.86 69.8007 17.068C69.3607 17.276 69.1407 17.564 69.1407 17.932C69.1407 18.3 69.3607 18.588 69.8007 18.796C70.2407 18.996 70.8527 19.096 71.6367 19.096C72.4207 19.096 73.0327 18.996 73.4727 18.796C73.9127 18.588 74.1327 18.3 74.1327 17.932C74.1327 17.564 73.9127 17.276 73.4727 17.068C73.0327 16.86 72.4207 16.756 71.6367 16.756ZM72.4047 10.096V10.948H70.1247V11.236C70.1247 11.924 70.3567 12.564 70.8207 13.156C71.2847 13.748 71.9007 14.176 72.6687 14.44L72.1287 15.256C71.5527 15.048 71.0487 14.74 70.6167 14.332C70.1847 13.924 69.8527 13.448 69.6207 12.904C69.3967 13.512 69.0567 14.048 68.6007 14.512C68.1447 14.976 67.6047 15.324 66.9807 15.556L66.4527 14.728C66.9727 14.536 67.4327 14.264 67.8327 13.912C68.2327 13.552 68.5407 13.14 68.7567 12.676C68.9727 12.212 69.0807 11.732 69.0807 11.236V10.948H66.7527V10.096H72.4047ZM85.0649 9.352V13.66H86.7689V14.524H85.0649V19.912H84.0209V9.352H85.0649ZM79.4729 11.02V9.484H80.5289V11.02H83.0849V11.86H76.8569V11.02H79.4729ZM80.0129 12.7C80.5089 12.7 80.9529 12.804 81.3449 13.012C81.7369 13.22 82.0449 13.508 82.2689 13.876C82.4929 14.244 82.6049 14.664 82.6049 15.136C82.6049 15.608 82.4929 16.032 82.2689 16.408C82.0449 16.776 81.7369 17.064 81.3449 17.272C80.9529 17.472 80.5089 17.572 80.0129 17.572C79.5249 17.572 79.0849 17.468 78.6929 17.26C78.3009 17.052 77.9929 16.764 77.7689 16.396C77.5449 16.028 77.4329 15.608 77.4329 15.136C77.4329 14.664 77.5449 14.244 77.7689 13.876C77.9929 13.508 78.3009 13.22 78.6929 13.012C79.0849 12.804 79.5249 12.7 80.0129 12.7ZM80.0129 13.552C79.5489 13.552 79.1689 13.7 78.8729 13.996C78.5769 14.292 78.4289 14.672 78.4289 15.136C78.4289 15.6 78.5769 15.98 78.8729 16.276C79.1689 16.564 79.5489 16.708 80.0129 16.708C80.4769 16.708 80.8569 16.564 81.1529 16.276C81.4489 15.98 81.5969 15.6 81.5969 15.136C81.5969 14.672 81.4489 14.292 81.1529 13.996C80.8569 13.7 80.4769 13.552 80.0129 13.552ZM96.0812 9.34V19.9H95.0372V9.34H96.0812ZM92.9612 10.468C92.9612 13.876 91.3292 16.372 88.0652 17.956L87.5132 17.128C90.2332 15.824 91.6972 13.888 91.9052 11.32H88.0052V10.468H92.9612Z" fill="#FF4093"/>
</svg>
