<svg width="106" height="29" viewBox="0 0 106 29" fill="none" xmlns="http://www.w3.org/2000/svg">
<rect x="0.5" y="0.5" width="105" height="28" rx="3.5" fill="#FFEEF6"/>
<rect x="0.5" y="0.5" width="105" height="28" rx="3.5" stroke="#FDBCD9"/>
<path d="M9.02 10.156H14.276V10.732C14.276 11.428 14.276 12.472 14 13.852L12.98 13.744C13.232 12.544 13.268 11.668 13.268 11.008H9.02V10.156ZM10.568 12.52H11.588V14.728C12.728 14.68 13.904 14.596 14.972 14.452L15.044 15.208C12.86 15.592 10.34 15.64 8.492 15.64L8.372 14.788C9.032 14.788 9.776 14.788 10.568 14.764V12.52ZM15.656 9.34H16.7V12.76H18.188V13.612H16.7V17.284H15.656V9.34ZM9.98 16.564H11.012V18.832H17.036V19.672H9.98V16.564ZM26.5643 9.352H27.5963V15.352H26.5643V9.352ZM20.7563 15.928H27.5963V19.768H20.7563V15.928ZM26.5883 16.756H21.7643V18.928H26.5883V16.756ZM21.6443 9.76H22.6883V10.768C22.6883 12.244 23.7443 13.552 25.3283 14.08L24.8243 14.884C23.6003 14.476 22.6523 13.612 22.1843 12.496C21.7163 13.684 20.7683 14.632 19.5083 15.088L18.9923 14.272C20.6123 13.708 21.6443 12.292 21.6443 10.768V9.76ZM32.4502 10.072H38.1142V10.912H35.8102V11.26C35.8102 12.64 36.7822 13.924 38.3542 14.452L37.8262 15.28C36.6382 14.86 35.7622 14.008 35.3062 12.952C34.8502 14.116 33.9262 15.04 32.6902 15.484L32.1382 14.668C33.7582 14.104 34.7782 12.736 34.7782 11.26V10.912H32.4502V10.072ZM39.3622 9.352H40.4062V12.1H41.9542V12.964H40.4062V15.7H39.3622V9.352ZM33.5302 16.264H40.4062V19.912H39.3622V17.104H33.5302V16.264ZM49.7785 9.328H50.8345V13.588H52.4785V14.464H50.8345V19.9H49.7785V9.328ZM48.0985 10.468C48.0985 13.492 46.7425 16.204 43.3105 17.92L42.7225 17.128C45.3865 15.784 46.8145 13.804 47.0425 11.32H43.2385V10.468H48.0985ZM61.3524 11.212H63.5964V9.352H64.6404V14.776H63.5964V12.064H61.3524V11.212ZM57.8244 15.316H64.6404V17.884H58.8684V18.94H65.0124V19.768H57.8364V17.104H63.6084V16.132H57.8244V15.316ZM58.5444 9.676H59.5644V10.636C59.5644 11.992 60.5844 13.264 62.1204 13.768L61.5804 14.572C60.4284 14.176 59.5404 13.348 59.0724 12.316C58.6284 13.48 57.7044 14.38 56.4684 14.812L55.9164 13.996C57.5244 13.456 58.5444 12.136 58.5444 10.636V9.676ZM72.0567 12.064H74.0847V9.352H75.1287V15.628H74.0847V12.916H72.0567V12.064ZM71.6367 15.94C73.8207 15.94 75.1647 16.684 75.1647 17.932C75.1647 19.18 73.8207 19.9 71.6367 19.9C69.4407 19.9 68.1087 19.18 68.1087 17.932C68.1087 16.684 69.4407 15.94 71.6367 15.94ZM71.6367 16.756C70.0767 16.756 69.1407 17.188 69.1407 17.932C69.1407 18.664 70.0767 19.096 71.6367 19.096C73.1967 19.096 74.1327 18.664 74.1327 17.932C74.1327 17.188 73.1967 16.756 71.6367 16.756ZM66.7527 10.096H72.4047V10.948H70.1247V11.236C70.1247 12.592 71.1087 13.9 72.6687 14.44L72.1287 15.256C70.9527 14.836 70.0767 13.972 69.6207 12.904C69.1767 14.116 68.2287 15.088 66.9807 15.556L66.4527 14.728C68.0367 14.152 69.0807 12.736 69.0807 11.236V10.948H66.7527V10.096ZM84.0209 9.352H85.0649V13.66H86.7689V14.524H85.0649V19.912H84.0209V9.352ZM76.8569 11.02H79.4729V9.484H80.5289V11.02H83.0849V11.86H76.8569V11.02ZM80.0129 12.7C81.5129 12.7 82.6049 13.708 82.6049 15.136C82.6049 16.576 81.5129 17.572 80.0129 17.572C78.5249 17.572 77.4329 16.576 77.4329 15.136C77.4329 13.708 78.5249 12.7 80.0129 12.7ZM80.0129 13.552C79.0889 13.552 78.4289 14.212 78.4289 15.136C78.4289 16.072 79.0889 16.708 80.0129 16.708C80.9369 16.708 81.5969 16.072 81.5969 15.136C81.5969 14.212 80.9369 13.552 80.0129 13.552ZM95.0372 9.34H96.0812V19.9H95.0372V9.34ZM92.9612 10.468C92.9612 13.552 91.6292 16.228 88.0652 17.956L87.5132 17.128C90.3212 15.784 91.7012 13.804 91.9052 11.32H88.0052V10.468H92.9612Z" fill="#FF4093"/>
</svg>
