<svg width="393" height="128" viewBox="0 0 393 128" fill="none" xmlns="http://www.w3.org/2000/svg">
<g clip-path="url(#clip0_2160_72273)">
<g clip-path="url(#clip1_2160_72273)">
<path d="M254.49 28.5195C244.68 28.5195 235.93 34.5195 232.22 43.5995C226.26 58.2095 211.89 68.5195 195.17 68.5195C178.45 68.5195 163.93 58.0895 158.02 43.3595C154.43 34.3995 145.75 28.5195 136.1 28.5195H0.0195312V128.52H393.02V28.5195H254.49Z" fill="white"/>
<path d="M393 28.7402H254.47C244.66 28.7402 235.91 34.7402 232.2 43.8202C226.24 58.4302 211.87 68.7402 195.15 68.7402C178.43 68.7402 164.06 58.4202 158.1 43.8202C154.39 34.7402 145.64 28.7402 135.83 28.7402H0" stroke="#EEEDED" stroke-miterlimit="10"/>
<path d="M37.9375 64.5195H49.9375V56.5195H51.9375V66.5195H35.9375V56.5195H37.9375V64.5195ZM54.9375 56.5195H52.9375L47.9375 48.5195H39.9375L34.9375 56.5195H32.9375L38.9375 46.5195H48.9375L54.9375 56.5195Z" fill="#CECDCD"/>
<path d="M40.3134 83.2635H47.5254V86.2875H40.3134V83.2635ZM46.5054 84.0435H41.3334V85.4955H46.5054V84.0435ZM39.6414 76.7115H43.3974V75.7155H44.4414V76.7115H48.1374V77.5275H39.6414V76.7115ZM43.9134 77.9115C46.1094 77.9115 47.3334 78.4395 47.3334 79.4115C47.3334 80.3115 46.3014 80.8275 44.4414 80.8995V81.6795H48.6894V82.4955H39.1494V81.6795H43.3974V80.8995C41.5254 80.8275 40.4934 80.3115 40.4934 79.4115C40.4934 78.4395 41.7174 77.9115 43.9134 77.9115ZM43.9134 78.6435C42.4134 78.6435 41.5974 78.9195 41.5974 79.4115C41.5974 79.9155 42.4134 80.1915 43.9134 80.1915C45.4254 80.1915 46.2414 79.9155 46.2414 79.4115C46.2414 78.9195 45.4254 78.6435 43.9134 78.6435Z" fill="#CECDCD"/>
<path d="M100.938 64.5195H114.938V48.5195H116.938V66.5195H98.9375V48.5195H100.938V64.5195ZM112.938 60.5195H102.938V58.5195H112.938V60.5195ZM112.938 54.5195H102.938V52.5195H112.938V54.5195ZM114.938 48.5195H100.938V46.5195H114.938V48.5195Z" fill="#CECDCD"/>
<path d="M105.525 75.8715H106.569V86.4315H105.525V75.8715ZM98.1452 76.9875H104.121V77.8275H102.981V82.8315C103.545 82.7835 104.097 82.7355 104.637 82.6755L104.709 83.4315C102.441 83.8035 99.9212 83.8275 97.9892 83.8395L97.8812 82.9635L99.2852 82.9515V77.8275H98.1452V76.9875ZM100.293 82.9395L101.973 82.8915V77.8275H100.293V82.9395ZM109.594 76.8195H116.758V77.6715H110.626V80.8995H116.866V81.7395H109.594V76.8195ZM108.394 84.1515H117.958V85.0035H108.394V84.1515Z" fill="#CECDCD"/>
<path d="M275.938 60.5195H279.914C281.06 60.5195 282.511 60.7978 283.711 61.5459C284.173 61.8339 284.598 62.1939 284.95 62.6299C285.021 62.5373 285.096 62.4454 285.176 62.3555C286.129 61.2821 287.646 60.5196 289.855 60.5195H293.938V49.5195H295.938V62.5195H289.855C288.143 62.5196 287.198 63.0904 286.671 63.6836C286.114 64.3104 285.934 65.0644 285.934 65.5195H283.934L283.928 65.3184C283.868 64.3344 283.366 63.6881 282.652 63.2432C281.847 62.7413 280.789 62.5195 279.914 62.5195H273.938V49.5195H275.938V60.5195ZM279.914 47.5195C281.06 47.5195 282.511 47.7978 283.711 48.5459C284.173 48.8339 284.598 49.1939 284.95 49.6299C285.021 49.5373 285.096 49.4454 285.176 49.3555C286.129 48.2821 287.646 47.5196 289.855 47.5195H293.938C293.938 47.52 293.938 48.5198 293.938 49.5195H289.855C288.143 49.5196 287.198 50.0904 286.671 50.6836C286.114 51.3104 285.934 52.0644 285.934 52.5195H283.934L283.928 52.3184C283.868 51.3344 283.366 50.6881 282.652 50.2432C281.847 49.7413 280.789 49.5195 279.914 49.5195H275.938V47.5195H279.914Z" fill="#CECDCD"/>
<path d="M280.173 79.4115H282.573V75.8475H283.605V86.4435H282.573V80.2635H280.173V79.4115ZM277.593 76.7595H278.625V78.6075C278.625 80.5275 279.753 82.4595 281.313 83.1915L280.701 84.0315C279.513 83.4195 278.589 82.1955 278.121 80.7315C277.653 82.2795 276.705 83.5755 275.517 84.2115L274.869 83.3715C276.441 82.6035 277.593 80.5635 277.593 78.6075V76.7595ZM293.41 75.8595H294.406V86.4195H293.41V80.9595H292.09V85.8915H291.118V76.0875H292.09V80.0955H293.41V75.8595ZM285.526 77.0835H290.398V77.9475H288.526V78.6795C288.526 80.6115 289.282 82.3275 290.77 83.0955L290.158 83.8995C289.126 83.3355 288.43 82.3395 288.058 81.1035C287.698 82.5195 286.99 83.6355 285.91 84.2835L285.262 83.4795C286.774 82.6155 287.53 80.8155 287.53 78.6795V77.9475H285.526V77.0835Z" fill="#CECDCD"/>
<path d="M358.938 66.5195H356.938V63.5195C356.938 59.1013 353.356 55.5195 348.938 55.5195C344.519 55.5195 340.938 59.1013 340.938 63.5195V66.5195H338.938V63.5195C338.938 57.9967 343.415 53.5195 348.938 53.5195C354.46 53.5195 358.938 57.9967 358.938 63.5195V66.5195Z" fill="#100F0F"/>
<rect x="346.438" y="46.5195" width="5" height="5" fill="#100F0F"/>
<path d="M333.661 84.2115H343.225V85.0875H333.661V84.2115ZM334.489 76.8915H342.349V77.7435H340.741V81.3435H342.337V82.1835H334.525V81.3435H336.097V77.7435H334.489V76.8915ZM337.141 81.3435H339.709V77.7435H337.141V81.3435ZM344.149 84.2835H348.397V82.3515H345.337V79.0395H351.517V77.4675H345.313V76.6275H352.549V79.8675H346.357V81.5115H352.789V82.3515H349.429V84.2835H353.713V85.1355H344.149V84.2835ZM362.27 75.8715H363.326V81.3315H362.27V75.8715ZM356.402 81.8355H363.326V84.4155H357.446V85.4835H363.698V86.3115H356.426V83.6475H362.282V82.6515H356.402V81.8355ZM355.106 76.5675H360.77V77.3955H359.762V79.9875C360.278 79.9515 360.794 79.9035 361.274 79.8435L361.322 80.5875C359.222 80.9235 356.774 80.9835 354.938 80.9835L354.818 80.1435L356.114 80.1315V77.3955H355.106V76.5675ZM357.122 80.1075L358.754 80.0475V77.3955H357.122V80.1075Z" fill="#100F0F"/>
</g>
<rect x="168" width="56" height="56" rx="28" fill="#100F0F"/>
<g clip-path="url(#clip2_2160_72273)">
<path d="M197.75 43.5H193.75V29.5H197.75V43.5ZM193.75 29.5H179.75V25.5H193.75V29.5ZM211.75 29.5H197.75V25.5H211.75V29.5ZM197.75 25.5H193.75V11.5H197.75V25.5Z" fill="white"/>
</g>
</g>
<defs>
<clipPath id="clip0_2160_72273">
<rect width="393" height="128" fill="white"/>
</clipPath>
<clipPath id="clip1_2160_72273">
<rect width="393" height="100" fill="white" transform="translate(0 28)"/>
</clipPath>
<clipPath id="clip2_2160_72273">
<rect width="32" height="32" fill="white" transform="translate(179.75 11.5)"/>
</clipPath>
</defs>
</svg>
